# xmcd
#
# Track frame offsets:
#	150
#	30110
#	45889
#	59804
#	72027
#	83169
#	100883
#	113836
#	125583
#	142012
#	153944
#	179794
#	193704
#	209838
#	227584
#	239181
#
# Disc length: 3346 seconds
#
# Revision: 0
# Processed by: cddbd v1.5.2PL0 Copyright (c) Steve Scherf et al.
# Submitted via: FairStars CD Ripper 1.90
#
DISCID=e80d1010
DTITLE=Various Artist - 100 Hits Country Hits Disc 3
DYEAR=2015
DGENRE=Country
TTITLE0=Hot Rod Lincoln (Asleep At The Wheel)
TTITLE1=Jukebox And A Country Song (Doug Stone)
TTITLE2=Tennessee Waltz (Lacy J. Dalton) 
TTITLE3=Loving You Is Killing Me (Alabama)
TTITLE4=That's All That Matters (Mickey Gilley)
TTITLE5=Don't Go To Strangers (T. Graham Brown)
TTITLE6=Wasted Days And Wasted Nights (Live) (Freddy Fender)
TTITLE7=The Happiest Girl In The Whole U.S.A. (Donna Fargo)
TTITLE8=Always Have Always Will (Janie Fricke)
TTITLE9=God Bless The U.S.A. (Live) (Lee Greenwood)
TTITLE10=I'll Still Be Lovin' You (Restless Heart)
TTITLE11=I Cheated Me Right Out Of You (Moe Bandy)
TTITLE12=Hurt (Juice Newton)
TTITLE13=Back At One (Mark Wills)
TTITLE14=You're My Man (Lynn Anderson)
TTITLE15=You'll Lose A Good Thing (Live) (Freddy Fender)
EXTD=
EXTT0=
EXTT1=
EXTT2=
EXTT3=
EXTT4=
EXTT5=
EXTT6=
EXTT7=
EXTT8=
EXTT9=
EXTT10=
EXTT11=
EXTT12=
EXTT13=
EXTT14=
EXTT15=
PLAYORDER=
